<svg width="38" height="37" viewBox="0 0 38 37" fill="none" xmlns="http://www.w3.org/2000/svg">
<path d="M0.691238 24.4266L8.60399 16.427C9.52577 15.4951 11.0201 15.4951 11.9419 16.427C12.8637 17.3597 12.8637 18.8704 11.9419 19.8023L9.53686 22.2337C25.6799 23.0352 36.1767 12.0821 36.2733 0.854437C36.2765 0.448531 36.8403 0.366068 36.9654 0.73915C40.8632 12.4111 33.774 27.071 15.2457 29.7218C13.4513 29.958 11.6362 30.1373 9.8069 30.267L11.9427 32.4262C12.8645 33.3581 12.8645 34.8697 11.9427 35.8008C11.0209 36.7327 9.52657 36.7335 8.60478 35.8008L0.692028 27.8011C-0.230545 26.8692 -0.230545 25.3585 0.691238 24.4266Z" fill="#06AD35"/>
</svg>
