<svg width="64" height="65" viewBox="0 0 64 65" fill="none" xmlns="http://www.w3.org/2000/svg">
<path d="M62.1367 11.4521C62.1328 11.4521 62.1289 11.4517 62.125 11.4517H45.125V9.57666C45.125 6.4751 42.6016 3.95166 39.5 3.95166H24.5C21.3984 3.95166 18.875 6.4751 18.875 9.57666V11.4517H1.875C0.831055 11.4517 0 12.3071 0 13.3267V54.5767C0 57.6782 2.52344 60.2017 5.625 60.2017H58.375C61.4766 60.2017 64 57.6782 64 54.5767V13.3662C64 13.3638 64 13.3613 64 13.3589C63.9282 12.1274 63.1709 11.459 62.1367 11.4521ZM22.625 9.57666C22.625 8.54297 23.4663 7.70166 24.5 7.70166H39.5C40.5337 7.70166 41.375 8.54297 41.375 9.57666V11.4517H22.625V9.57666ZM59.5234 15.2017L53.7007 32.6694C53.4453 33.4365 52.7305 33.9517 51.9224 33.9517H41.375V32.0767C41.375 31.041 40.5356 30.2017 39.5 30.2017H24.5C23.4644 30.2017 22.625 31.041 22.625 32.0767V33.9517H12.0776C11.2695 33.9517 10.5547 33.4365 10.2993 32.6694L4.47656 15.2017H59.5234ZM37.625 33.9517V37.7017H26.375V33.9517H37.625ZM60.25 54.5767C60.25 55.6104 59.4087 56.4517 58.375 56.4517H5.625C4.59131 56.4517 3.75 55.6104 3.75 54.5767V24.8809L6.7417 33.8555C7.5083 36.1562 9.65283 37.7017 12.0776 37.7017H22.625V39.5767C22.625 40.6123 23.4644 41.4517 24.5 41.4517H39.5C40.5356 41.4517 41.375 40.6123 41.375 39.5767V37.7017H51.9224C54.3472 37.7017 56.4917 36.1562 57.2583 33.8555L60.25 24.8809V54.5767Z" fill="#FF8C4B"/>
</svg>
