<svg width="48" height="43" viewBox="0 0 48 43" fill="none" xmlns="http://www.w3.org/2000/svg">
<path d="M21.8935 42.9996C21.7483 42.9996 21.6047 42.969 21.4717 42.9098C21.3387 42.8506 21.2191 42.7641 21.1206 42.6556L0.279663 19.7295C0.140732 19.5766 0.0486297 19.3859 0.014628 19.1807C-0.0193737 18.9754 0.00620007 18.7646 0.0882197 18.5739C0.170239 18.3832 0.305147 18.2209 0.476431 18.107C0.647715 17.993 0.847946 17.9324 1.05262 17.9324H11.0843C11.2349 17.9324 11.3838 17.9653 11.5208 18.0288C11.6579 18.0923 11.78 18.1849 11.8788 18.3005L18.8439 26.4495C19.5967 24.8131 21.0538 22.0885 23.6109 18.7685C27.3912 13.8603 34.4226 6.6419 46.4526 0.125621C46.6851 -0.000298192 46.9556 -0.0329793 47.2107 0.0340316C47.4657 0.101042 47.6868 0.262874 47.8302 0.48757C47.9737 0.712267 48.0291 0.983495 47.9855 1.2477C47.9419 1.5119 47.8024 1.74987 47.5947 1.91462C47.5488 1.95113 42.9105 5.66572 37.5723 12.4696C32.6594 18.7309 26.1286 28.9691 22.915 42.1864C22.8586 42.4186 22.7273 42.6249 22.5421 42.7724C22.3569 42.9199 22.1284 43 21.8932 43L21.8935 42.9996Z" fill="#5AD845"/>
</svg>
