<svg width="24" height="24" viewBox="0 0 24 24" fill="none" xmlns="http://www.w3.org/2000/svg">
<path d="M3.18695 20.8115C3.24665 20.8712 3.31755 20.9186 3.3956 20.951C3.47364 20.9833 3.5573 21 3.64179 21C3.72627 21 3.80993 20.9833 3.88797 20.951C3.96602 20.9186 4.03692 20.8712 4.09663 20.8115L11.9977 12.9111L19.9019 20.8115C20.0226 20.9321 20.1862 20.9999 20.3568 20.9999C20.5274 20.9999 20.691 20.9321 20.8116 20.8115C20.9322 20.6908 21 20.5273 21 20.3567C21 20.1861 20.9322 20.0225 20.8116 19.9019L12.9073 12.0015L20.8084 4.09798C20.929 3.97736 20.9968 3.81377 20.9968 3.64318C20.9968 3.4726 20.929 3.309 20.8084 3.18838C20.6878 3.06776 20.5241 3 20.3535 3C20.1829 3 20.0193 3.06776 19.8987 3.18838L11.9977 11.0919L4.09341 3.1916C3.97043 3.08629 3.81223 3.03126 3.65043 3.03751C3.48863 3.04375 3.33515 3.11082 3.22066 3.22531C3.10616 3.33979 3.03909 3.49326 3.03284 3.65504C3.02659 3.81683 3.08162 3.97501 3.18695 4.09798L11.088 12.0015L3.18695 19.9051C3.06721 20.0255 3 20.1884 3 20.3583C3 20.5281 3.06721 20.691 3.18695 20.8115Z" fill="#0178A9"/>
</svg>
