<svg width="24" height="25" viewBox="0 0 24 25" fill="none" xmlns="http://www.w3.org/2000/svg">
<g clip-path="url(#clip0_527_1335)">
<path d="M11.2648 24.0759H4.06953C2.86484 24.0759 1.84297 23.6915 1.11641 22.9649C0.389844 22.2384 0.00546875 21.2118 0.00546875 20.0024C0.00078125 14.7899 0.00078125 10.0837 0.00546875 5.61182C0.00546875 4.40713 0.394531 3.38525 1.12578 2.66338C1.85703 1.9415 2.87891 1.55713 4.08828 1.55713H8.86953C9.45547 1.55713 9.93359 1.73057 10.257 2.05869C10.5477 2.34932 10.6977 2.75244 10.693 3.22119C10.6836 4.21494 9.98047 4.85244 8.89297 4.85713H5.62109H4.10703C3.45078 4.85713 3.29609 5.01182 3.29609 5.67744V19.9649C3.29609 20.6259 3.45078 20.7759 4.11172 20.7759H11.2555C11.2555 20.7759 16.018 20.7759 18.3992 20.7759C19.0602 20.7759 19.2148 20.6259 19.2148 19.9603C19.2148 19.1774 19.2148 18.3946 19.2148 17.6118C19.2148 16.8009 19.2148 15.9899 19.2148 15.179C19.2148 14.0915 19.8617 13.3837 20.8555 13.379H20.8648C21.8633 13.379 22.5102 14.0774 22.5102 15.1603V15.6103C22.5148 17.0774 22.5148 18.5962 22.5102 20.0868C22.5055 21.2446 22.1164 22.2384 21.3852 22.9603C20.6539 23.6821 19.6602 24.0665 18.4977 24.0712C17.5508 24.0712 16.6039 24.0712 15.6617 24.0712H11.2648V24.0759Z" fill="white"/>
<path d="M10.4027 15.2079C9.84484 15.2079 9.29641 14.8376 9.03859 14.2892C8.71984 13.6095 8.85578 12.8735 9.40422 12.3157C10.0886 11.622 10.7917 10.9235 11.4714 10.2485L12.1933 9.53135L14.523 7.21572C15.7745 5.97354 17.0214 4.73135 18.2683 3.48447C18.2917 3.46104 18.3152 3.4376 18.3386 3.40947C17.5792 3.39541 15.9339 3.38604 15.0198 3.38135C14.4995 3.38135 14.0589 3.2126 13.7495 2.89385C13.4542 2.59385 13.2995 2.18135 13.3042 1.70791C13.3136 0.737598 14.0027 0.0860352 15.0152 0.0813477C16.262 0.0766602 17.4995 0.0766602 18.7417 0.0766602C20.0027 0.0766602 21.1698 0.0766602 22.3136 0.0813477C23.3308 0.0813477 23.9917 0.73291 23.9964 1.73604C24.0058 4.24385 24.0058 6.72822 23.9964 9.12822C23.9917 10.0938 23.3167 10.7735 22.3558 10.7735C21.3948 10.7735 20.7198 10.0985 20.7105 9.1376C20.7058 8.64541 20.7011 7.88135 20.6964 7.14072C20.6917 6.59697 20.6917 6.07666 20.687 5.72978C20.6495 5.7626 20.6167 5.79541 20.5839 5.82822C19.862 6.55478 19.1402 7.27666 18.4183 8.00322C16.2902 10.1407 14.0917 12.3532 11.9167 14.5142C11.5792 14.8423 11.1573 15.072 10.7027 15.1798C10.5995 15.1985 10.5011 15.2079 10.4027 15.2079Z" fill="white"/>
</g>
<defs>
<clipPath id="clip0_527_1335">
<rect width="24" height="24" fill="white" transform="translate(0 0.0766602)"/>
</clipPath>
</defs>
</svg>
