<svg width="40" height="41" viewBox="0 0 40 41" fill="none" xmlns="http://www.w3.org/2000/svg">
<path d="M19.9219 1.75684C8.93672 1.75684 0 9.64184 0 19.335C0 23.4296 1.62047 27.3973 4.56961 30.5421C5.15328 32.9489 4.44484 35.4986 2.68703 37.2564C1.95203 37.9914 2.4718 39.2568 3.51562 39.2568C6.855 39.2568 10.0742 37.9488 12.466 35.6417C14.8327 36.4862 17.3366 36.9131 19.9219 36.9131C30.907 36.9131 40 29.0281 40 19.335C40 9.64184 30.907 1.75684 19.9219 1.75684Z" fill="#FFFDC6"/>
<path d="M19.0055 26.8335C14.4088 26.8335 11.2821 23.4268 11.2821 17.8035C11.2821 12.1802 14.4088 8.93684 19.0055 8.93684C23.5788 8.93684 26.7055 12.2035 26.7055 17.8035C26.7055 23.4268 23.5788 26.8335 19.0055 26.8335ZM19.0055 24.0102C21.5721 24.0102 23.2055 21.7002 23.2055 17.8035C23.2055 14.1168 21.5721 11.9002 19.0055 11.9002C16.4155 11.9002 14.8055 14.1168 14.8055 17.8035C14.8055 21.7002 16.4155 24.0102 19.0055 24.0102ZM24.5821 31.1968C20.9188 31.1968 18.3988 29.1668 17.3021 26.4135L20.8021 26.0635C21.4555 27.7435 23.2288 28.4435 24.9555 28.4435C25.7255 28.4435 26.3555 28.3268 26.8688 28.1402L27.4988 30.6835C26.8688 30.9868 25.8421 31.1968 24.5821 31.1968Z" fill="#FF8C4B"/>
</svg>
