<svg width="64" height="65" viewBox="0 0 64 65" fill="none" xmlns="http://www.w3.org/2000/svg">
<path fill-rule="evenodd" clip-rule="evenodd" d="M24.5525 18.4721C27.9605 15.4668 32.4351 13.6401 37.3338 13.6401C48.0031 13.6401 56.6671 22.3041 56.6671 32.9735C56.6671 43.6428 48.0031 52.3068 37.3338 52.3068C32.4351 52.3068 27.9605 50.4801 24.5525 47.4748C23.7258 46.7441 22.4591 46.8215 21.7285 47.6508C20.9978 48.4775 21.0778 49.7415 21.9045 50.4721C26.0191 54.1041 31.4218 56.3068 37.3338 56.3068C50.2111 56.3068 60.6671 45.8508 60.6671 32.9735C60.6671 20.0961 50.2111 9.64014 37.3338 9.64014C31.4218 9.64014 26.0191 11.8428 21.9045 15.4748C21.0778 16.2055 20.9978 17.4695 21.7285 18.2961C22.4591 19.1255 23.7258 19.2028 24.5525 18.4721Z" fill="#016087"/>
<path fill-rule="evenodd" clip-rule="evenodd" d="M34.2676 21.2417V31.9084C34.2676 32.439 34.4782 32.9484 34.8542 33.3217L43.3876 41.855C44.1662 42.6364 45.4356 42.6364 46.2142 41.855C46.9956 41.0764 46.9956 39.807 46.2142 39.0284L38.2676 31.079V21.2417C38.2676 20.1377 37.3716 19.2417 36.2676 19.2417C35.1636 19.2417 34.2676 20.1377 34.2676 21.2417Z" fill="#FF8C4B"/>
<path fill-rule="evenodd" clip-rule="evenodd" d="M5.33398 25.6401H21.334C22.438 25.6401 23.334 24.7441 23.334 23.6401C23.334 22.5361 22.438 21.6401 21.334 21.6401H5.33398C4.22998 21.6401 3.33398 22.5361 3.33398 23.6401C3.33398 24.7441 4.22998 25.6401 5.33398 25.6401Z" fill="#FF8C4B"/>
<path fill-rule="evenodd" clip-rule="evenodd" d="M8 34.9722H24C25.104 34.9722 26 34.0762 26 32.9722C26 31.8682 25.104 30.9722 24 30.9722H8C6.896 30.9722 6 31.8682 6 32.9722C6 34.0762 6.896 34.9722 8 34.9722Z" fill="#FF8C4B"/>
<path fill-rule="evenodd" clip-rule="evenodd" d="M10.668 44.3081H26.668C27.772 44.3081 28.668 43.4121 28.668 42.3081C28.668 41.2041 27.772 40.3081 26.668 40.3081H10.668C9.56397 40.3081 8.66797 41.2041 8.66797 42.3081C8.66797 43.4121 9.56397 44.3081 10.668 44.3081Z" fill="#FF8C4B"/>
</svg>
