<svg width="64" height="65" viewBox="0 0 64 65" fill="none" xmlns="http://www.w3.org/2000/svg">
<g clip-path="url(#clip0_527_2286)">
<path d="M33.2521 26.5425C34.5723 25.7644 35.4582 24.3277 35.4582 22.6844C35.4582 20.2127 33.4546 18.2091 30.9829 18.2091C28.5114 18.2091 26.5078 20.2127 26.5078 22.6844C26.5078 24.1519 27.2142 25.4544 28.3054 26.2705" stroke="#FF8C4B" stroke-width="3" stroke-miterlimit="10" stroke-linecap="round" stroke-linejoin="round"/>
<path d="M34.1477 33.7495C38.9651 32.3751 42.4919 27.9405 42.4919 22.682C42.4919 16.3265 37.3398 11.1744 30.9843 11.1744C24.6287 11.1744 19.4766 16.3265 19.4766 22.682C19.4766 27.8459 22.8778 32.2154 27.5622 33.6724" stroke="#FF8C4B" stroke-width="3" stroke-miterlimit="10" stroke-linecap="round" stroke-linejoin="round"/>
<path d="M47.1409 9.90795C45.774 11.2748 43.558 11.2748 42.1912 9.90795C40.8243 8.54107 40.8243 6.32507 42.1912 4.9582C43.558 3.59132 45.774 3.59132 47.1409 4.9582C48.5078 6.32507 48.5078 8.54107 47.1409 9.90795Z" stroke="#FF8C4B" stroke-width="3" stroke-miterlimit="10" stroke-linecap="round" stroke-linejoin="round"/>
<path d="M19.7757 40.4079C18.4088 41.7748 16.1928 41.7748 14.8259 40.4079C13.4591 39.0411 13.4591 36.8251 14.8259 35.4582C16.1928 34.0913 18.4088 34.0913 19.7757 35.4582C21.1426 36.8251 21.1426 39.0411 19.7757 40.4079Z" stroke="#FF8C4B" stroke-width="3" stroke-miterlimit="10" stroke-linecap="round" stroke-linejoin="round"/>
<path d="M34.1465 42.8979C43.9431 41.3773 51.4412 32.9057 51.4412 22.683C51.4412 18.048 49.8996 13.7733 47.3016 10.343" stroke="#FF8C4B" stroke-width="3" stroke-miterlimit="10" stroke-linecap="round" stroke-linejoin="round"/>
<path d="M29.785 2.25883C19.0441 2.87933 10.5254 11.7861 10.5254 22.6825C10.5254 27.3528 12.0906 31.6576 14.7249 35.1011" stroke="#FF8C4B" stroke-width="3" stroke-miterlimit="10" stroke-linecap="round" stroke-linejoin="round"/>
<path d="M53.479 63.7222V48.7903C53.479 47.0109 52.0365 45.5684 50.2571 45.5684C48.4777 45.5684 47.0353 47.0109 47.0353 48.7903V46.2277C47.0353 44.4483 45.5928 43.0059 43.8135 43.0059C42.0341 43.0059 40.5916 44.4483 40.5916 46.2277C40.5916 44.4483 39.1492 43.0059 37.3698 43.0059C35.5905 43.0059 34.148 44.4483 34.148 46.2277V28.77C34.148 26.9907 32.7056 25.5482 30.9262 25.5482C29.1468 25.5482 27.7043 26.9907 27.7043 28.77V44.1475V57.4503L23.8168 51.0718C22.8611 49.5037 20.8287 48.9848 19.2383 49.903C17.7045 50.7885 17.1137 52.7075 17.884 54.3023L22.5468 63.7222" stroke="#016087" stroke-width="3" stroke-miterlimit="10" stroke-linecap="round" stroke-linejoin="round"/>
<path d="M34.1465 46.2287V52.5112" stroke="#016087" stroke-width="3" stroke-miterlimit="10" stroke-linecap="round" stroke-linejoin="round"/>
<path d="M40.5918 46.2269V52.9644" stroke="#016087" stroke-width="3" stroke-miterlimit="10" stroke-linecap="round" stroke-linejoin="round"/>
<path d="M47.0352 48.7909V53.0503" stroke="#016087" stroke-width="3" stroke-miterlimit="10" stroke-linecap="round" stroke-linejoin="round"/>
</g>
<defs>
<clipPath id="clip0_527_2286">
<rect width="64" height="64" fill="white" transform="translate(0 0.972168)"/>
</clipPath>
</defs>
</svg>
