<svg width="40" height="41" viewBox="0 0 40 41" fill="none" xmlns="http://www.w3.org/2000/svg">
<path d="M20.0781 1.75684C31.0633 1.75684 40 9.64184 40 19.335C40 23.4296 38.3795 27.3973 35.4304 30.5421C34.8467 32.9489 35.5552 35.4986 37.313 37.2564C38.048 37.9914 37.5282 39.2568 36.4844 39.2568C33.145 39.2568 29.9258 37.9488 27.534 35.6417C25.1673 36.4862 22.6634 36.9131 20.0781 36.9131C9.09297 36.9131 0 29.0281 0 19.335C0 9.64184 9.09297 1.75684 20.0781 1.75684Z" fill="#77CCFA"/>
<path d="M11.9327 26.5068L17.4627 9.24017H21.5227L27.0527 26.5068H23.436L20.9627 17.5235C20.4494 15.7268 19.9594 13.7202 19.4694 11.8768H19.376C18.9094 13.7435 18.4194 15.7268 17.906 17.5235L15.4327 26.5068H11.9327ZM15.3627 22.0735V19.4135H23.576V22.0735H15.3627Z" fill="white"/>
</svg>
