<svg width="24" height="25" viewBox="0 0 24 25" fill="none" xmlns="http://www.w3.org/2000/svg">
<g clip-path="url(#clip0_253_284)">
<path d="M18.6671 11.5704L7.98679 0.890247C7.73977 0.64303 7.41002 0.506836 7.05841 0.506836C6.7068 0.506836 6.37705 0.64303 6.13003 0.890247L5.3435 1.67658C4.8317 2.18897 4.8317 3.02174 5.3435 3.53335L14.312 12.5019L5.33355 21.4803C5.08652 21.7275 4.95013 22.0571 4.95013 22.4085C4.95013 22.7603 5.08652 23.0899 5.33355 23.3373L6.12008 24.1234C6.36729 24.3706 6.69685 24.5068 7.04846 24.5068C7.40007 24.5068 7.72982 24.3706 7.97684 24.1234L18.6671 13.4336C18.9147 13.1856 19.0507 12.8544 19.0499 12.5024C19.0507 12.1491 18.9147 11.8182 18.6671 11.5704Z" fill="white"/>
</g>
<defs>
<clipPath id="clip0_253_284">
<rect width="24" height="24" fill="white" transform="translate(0 0.506836)"/>
</clipPath>
</defs>
</svg>
