<svg width="24" height="25" viewBox="0 0 24 25" fill="none" xmlns="http://www.w3.org/2000/svg">
<g clip-path="url(#clip0_35_5534)">
<path d="M12.9365 19.174L23.6166 8.49369C23.8638 8.24667 24 7.91691 24 7.56531C24 7.2137 23.8638 6.88395 23.6166 6.63692L22.8303 5.85039C22.3179 5.33859 21.4851 5.33859 20.9735 5.85039L12.005 14.8189L3.02651 5.84044C2.77929 5.59342 2.44974 5.45703 2.09832 5.45703C1.74652 5.45703 1.41696 5.59342 1.16955 5.84044L0.383411 6.62697C0.136194 6.87419 -7.63515e-08 7.20375 -9.17207e-08 7.55535C-1.0709e-07 7.90696 0.136194 8.23672 0.383411 8.48374L11.0733 19.174C11.3213 19.4216 11.6524 19.5576 12.0044 19.5568C12.3578 19.5576 12.6887 19.4216 12.9365 19.174Z" fill="white"/>
</g>
<defs>
<clipPath id="clip0_35_5534">
<rect width="24" height="24" fill="white" transform="translate(0 0.506836)"/>
</clipPath>
</defs>
</svg>
