<svg width="64" height="65" viewBox="0 0 64 65" fill="none" xmlns="http://www.w3.org/2000/svg">
<g clip-path="url(#clip0_527_1308)">
<path d="M62.1693 8.82418C61.2278 7.88105 59.7002 7.87943 58.7587 8.82018L29.8221 37.6804L19.3818 26.3413C18.4797 25.3621 16.9545 25.2986 15.9736 26.2006C14.9935 27.1027 14.9307 28.6287 15.8328 29.6088L27.9736 42.7939C28.4182 43.2772 29.0405 43.5578 29.6966 43.5714C29.7142 43.5722 29.7312 43.5722 29.7481 43.5722C30.3857 43.5722 30.9991 43.3189 31.451 42.8687L62.1646 12.2356C63.1085 11.2949 63.1101 9.7673 62.1693 8.82418Z" fill="#FF8C4B"/>
<path d="M61.5879 29.6645C60.2556 29.6645 59.1759 30.7443 59.1759 32.0767C59.1759 47.062 46.9854 59.2525 32 59.2525C17.0155 59.2525 4.82412 47.062 4.82412 32.0767C4.82412 17.0922 17.0155 4.90078 32 4.90078C33.3322 4.90078 34.4121 3.82104 34.4121 2.48879C34.4121 1.15641 33.3322 0.0766602 32 0.0766602C14.355 0.0766602 0 14.4317 0 32.0767C0 49.7209 14.355 64.0767 32 64.0767C49.6442 64.0767 64 49.7209 64 32.0767C64 30.7444 62.9202 29.6645 61.5879 29.6645Z" fill="#FF8C4B"/>
</g>
<defs>
<clipPath id="clip0_527_1308">
<rect width="64" height="64" fill="white" transform="translate(0 0.0766602)"/>
</clipPath>
</defs>
</svg>
