<svg width="22" height="22" viewBox="0 0 22 22" fill="none" xmlns="http://www.w3.org/2000/svg">
<path d="M21.8062 4.37082L15.1341 11L21.8062 17.6292C21.9268 17.3771 22 17.0984 22 16.8008V5.19921C22 4.90157 21.9268 4.62292 21.8062 4.37082Z" fill="white"/>
<path d="M20.0664 3.26562H1.9336C1.63595 3.26562 1.3573 3.3388 1.1052 3.45941L9.63291 11.9442C10.3869 12.6982 11.6131 12.6982 12.3671 11.9442L20.8948 3.45941C20.6427 3.3388 20.3641 3.26562 20.0664 3.26562Z" fill="white"/>
<path d="M0.193789 4.37082C0.0731758 4.62292 0 4.90157 0 5.19921V16.8008C0 17.0984 0.0731758 17.3771 0.193789 17.6292L6.86593 11L0.193789 4.37082Z" fill="white"/>
<path d="M14.2227 11.9114L13.2785 12.8556C12.0221 14.1119 9.97782 14.1119 8.72146 12.8556L7.77735 11.9114L1.1052 18.5406C1.3573 18.6612 1.63595 18.7344 1.9336 18.7344H20.0664C20.3641 18.7344 20.6427 18.6612 20.8948 18.5406L14.2227 11.9114Z" fill="white"/>
</svg>
