<svg width="64" height="65" viewBox="0 0 64 65" fill="none" xmlns="http://www.w3.org/2000/svg">
<path d="M59.5056 28.8735C59.2606 21.8925 56.4336 15.3645 51.4696 10.4005C46.2666 5.19654 39.3516 2.33154 31.9996 2.33154C17.1506 2.33154 5.01758 14.1505 4.49458 28.8735C2.22858 29.8805 0.642578 32.1485 0.642578 34.7845V42.0465C0.642578 45.6125 3.54358 48.5145 7.11058 48.5145C9.41858 48.5145 11.2956 46.6375 11.2956 44.3295V32.5005C11.2956 30.3335 9.63358 28.5665 7.52058 28.3565C8.30058 15.5295 18.9786 5.33154 31.9996 5.33154C38.5516 5.33154 44.7126 7.88554 49.3496 12.5225C53.6076 16.7805 56.0996 22.3305 56.4746 28.3575C54.3636 28.5695 52.7046 30.3355 52.7046 32.5005V44.3285C52.7046 46.5135 54.3926 48.2915 56.5306 48.4765V51.4655C56.5306 54.8315 53.7916 57.5695 50.4256 57.5695H45.9046C45.6826 56.9355 45.3346 56.3495 44.8466 55.8635C43.9916 55.0045 42.8516 54.5315 41.6376 54.5315H36.9776C36.3086 54.5315 35.6666 54.6735 35.0786 54.9475C33.4746 55.6845 32.4386 57.3025 32.4386 59.0695C32.4386 60.2835 32.9116 61.4235 33.7686 62.2765C34.6256 63.1355 35.7656 63.6085 36.9776 63.6085H41.6376C43.5696 63.6085 45.2726 62.3595 45.9076 60.5695H50.4256C55.4466 60.5695 59.5306 56.4855 59.5306 51.4655V47.9425C61.7826 46.9295 63.3566 44.6695 63.3566 42.0445V34.7825C63.3566 32.1485 61.7706 29.8805 59.5056 28.8735ZM8.29458 32.5005V44.3285C8.29458 44.9815 7.76358 45.5135 7.10958 45.5135C5.19758 45.5135 3.64158 43.9575 3.64158 42.0455V34.7835C3.64158 32.8705 5.19758 31.3155 7.10958 31.3155C7.76358 31.3155 8.29458 31.8475 8.29458 32.5005ZM43.1426 59.3915C42.9936 60.0975 42.3596 60.6105 41.6366 60.6105H36.9766C36.5666 60.6105 36.1816 60.4505 35.8876 60.1565C35.5976 59.8675 35.4376 59.4815 35.4376 59.0715C35.4376 58.4725 35.7886 57.9255 36.3386 57.6725C36.5346 57.5805 36.7496 57.5335 36.9766 57.5335H41.6366C42.0466 57.5335 42.4316 57.6925 42.7246 57.9865C43.0146 58.2755 43.1746 58.6615 43.1746 59.0715C43.1756 59.1815 43.1636 59.2915 43.1426 59.3915ZM60.3566 42.0455C60.3566 43.9575 58.8006 45.5135 56.8886 45.5135C56.2356 45.5135 55.7036 44.9825 55.7036 44.3285V32.5005C55.7036 31.8475 56.2346 31.3155 56.8886 31.3155C58.8006 31.3155 60.3566 32.8715 60.3566 34.7835V42.0455Z" fill="#016087"/>
<path d="M41.7117 42.5609C45.2167 42.5609 48.0677 39.7089 48.0677 36.2049V23.2539C48.0677 21.5599 47.4057 19.9639 46.2037 18.7619C45.0017 17.5599 43.4067 16.8979 41.7117 16.8979H22.2857C18.7807 16.8979 15.9297 19.7489 15.9297 23.2539V36.2049C15.9297 39.7099 18.7807 42.5609 22.2857 42.5609H22.4047V45.917C22.4047 47.197 23.1677 48.3329 24.3477 48.8119C24.7287 48.9649 25.1247 49.0409 25.5167 49.0409C26.3337 49.0409 27.1297 48.7169 27.7127 48.1139L33.2957 42.5609H41.7117ZM31.6207 39.9969L25.5787 46.0059C25.5517 46.0339 25.5317 46.0549 25.4747 46.0299C25.4057 46.0019 25.4057 45.957 25.4057 45.917V41.0609C25.4057 40.2329 24.7347 39.5609 23.9057 39.5609H22.2867C20.4357 39.5609 18.9307 38.0549 18.9307 36.2049V23.2539C18.9307 21.4029 20.4357 19.898 22.2867 19.898H41.7127C42.6067 19.898 43.4477 20.2479 44.0837 20.8829C44.7197 21.5189 45.0687 22.3609 45.0687 23.2539V36.2049C45.0687 38.0559 43.5627 39.5609 41.7127 39.5609H32.6787C32.2817 39.5609 31.9017 39.7179 31.6207 39.9969Z" fill="#FF8C4B"/>
<path d="M24.713 27.7573C23.493 27.7573 22.5 28.7513 22.5 29.9703C22.5 31.1893 23.494 32.1833 24.713 32.1833C25.934 32.1833 26.928 31.1893 26.928 29.9703C26.928 28.7513 25.935 27.7573 24.713 27.7573Z" fill="#FF8C4B"/>
<path d="M31.9982 27.7573C30.7782 27.7573 29.7852 28.7513 29.7852 29.9703C29.7852 31.1893 30.7792 32.1833 31.9982 32.1833C33.2202 32.1833 34.2132 31.1893 34.2132 29.9703C34.2132 28.7513 33.2202 27.7573 31.9982 27.7573Z" fill="#FF8C4B"/>
<path d="M39.2853 27.7573C38.0653 27.7573 37.0723 28.7513 37.0723 29.9703C37.0723 31.1893 38.0663 32.1833 39.2853 32.1833C40.5063 32.1833 41.5003 31.1893 41.5003 29.9703C41.5003 28.7513 40.5063 27.7573 39.2853 27.7573Z" fill="#FF8C4B"/>
</svg>
