<svg width="22" height="22" viewBox="0 0 22 22" fill="none" xmlns="http://www.w3.org/2000/svg">
<g clip-path="url(#clip0_5_2283)">
<path d="M11 0.458344C4.93625 0.458344 0 4.48984 0 9.44443C0 13.882 3.91417 17.6 9.19875 18.3068C9.55717 18.3828 10.0448 18.5451 10.1686 18.8513C10.2786 19.129 10.241 19.558 10.2034 19.8477L10.0531 20.7882C10.0118 21.0659 9.83308 21.8818 11.0147 21.3831C12.1981 20.8863 17.3543 17.6211 19.6643 14.949C21.2447 13.2073 22 11.4226 22 9.44443C22 4.48984 17.0637 0.458344 11 0.458344ZM6.69442 12.3906H4.50725C4.191 12.3906 3.92975 12.1275 3.92975 11.8103V7.40943C3.92975 7.09134 4.191 6.82826 4.50725 6.82826C4.82625 6.82826 5.08475 7.09134 5.08475 7.40943V11.2292H6.69442C7.01342 11.2292 7.271 11.4904 7.271 11.8103C7.271 12.1275 7.0125 12.3906 6.69442 12.3906ZM8.95492 11.8103C8.95492 12.1275 8.69642 12.3906 8.3765 12.3906C8.06025 12.3906 7.80175 12.1275 7.80175 11.8103V7.40943C7.80175 7.09134 8.06025 6.82826 8.37925 6.82826C8.69642 6.82826 8.95492 7.09134 8.95492 7.40943V11.8103ZM14.2175 11.8103C14.2175 12.0597 14.058 12.2806 13.8215 12.3603C13.7628 12.3796 13.6996 12.3888 13.6391 12.3888C13.4457 12.3888 13.2807 12.3053 13.1716 12.1578L10.9322 9.09793V11.8094C10.9322 12.1266 10.6764 12.3897 10.3538 12.3897C10.0366 12.3897 9.77992 12.1266 9.77992 11.8094V7.40943C9.77992 7.16009 9.9385 6.93918 10.1741 6.86034C10.2291 6.83926 10.2988 6.83009 10.3519 6.83009C10.5307 6.83009 10.6957 6.92634 10.8057 7.06476L13.0625 10.1365V7.40943C13.0625 7.09134 13.321 6.82826 13.64 6.82826C13.9563 6.82826 14.2175 7.09134 14.2175 7.40943V11.8103ZM17.7512 9.02826C18.0712 9.02826 18.3288 9.29134 18.3288 9.61034C18.3288 9.92843 18.0712 10.1915 17.7512 10.1915H16.1425V11.2292H17.7512C18.0712 11.2292 18.3288 11.4904 18.3288 11.8103C18.3288 12.1275 18.0712 12.3906 17.7512 12.3906H15.5641C15.2478 12.3906 14.9893 12.1275 14.9893 11.8103V7.40943C14.9893 7.09134 15.2478 6.82826 15.5668 6.82826H17.754C18.0712 6.82826 18.3288 7.09134 18.3288 7.40943C18.3288 7.73118 18.0712 7.99059 17.7512 7.99059H16.1425V9.02826H17.7512Z" fill="white"/>
</g>
<defs>
<clipPath id="clip0_5_2283">
<rect width="22" height="22" fill="white"/>
</clipPath>
</defs>
</svg>
