<svg width="35" height="36" viewBox="0 0 35 36" fill="none" xmlns="http://www.w3.org/2000/svg">
<rect y="0.160156" width="34.8665" height="34.8665" rx="17.4332" fill="#37BD21"/>
<g clip-path="url(#clip0_35_5724)">
<path d="M11.8717 20.6859C13.7235 22.8995 15.9526 24.6423 18.4968 25.8755C19.4655 26.3345 20.7609 26.8792 22.2042 26.9725C22.2937 26.9764 22.3792 26.9803 22.4687 26.9803C23.4374 26.9803 24.2154 26.6458 24.8495 25.9572C24.8534 25.9533 24.8612 25.9455 24.8651 25.9377C25.0907 25.6654 25.3475 25.4203 25.6159 25.1597C25.7988 24.9846 25.9855 24.8018 26.1644 24.615C26.9931 23.7514 26.9931 22.6544 26.1567 21.818L23.8186 19.4799C23.4218 19.0676 22.9472 18.8497 22.4493 18.8497C21.9513 18.8497 21.4728 19.0676 21.0643 19.4761L19.6716 20.8688C19.5433 20.7948 19.411 20.7287 19.2865 20.6665C19.1309 20.5887 18.987 20.5147 18.8586 20.4331C17.5904 19.6278 16.4389 18.5774 15.3379 17.2275C14.7816 16.5234 14.4082 15.9321 14.1475 15.3291C14.5132 14.9984 14.8555 14.6522 15.1862 14.3137C15.3029 14.1931 15.4235 14.0725 15.5441 13.9519C15.9642 13.5318 16.1899 13.0455 16.1899 12.5514C16.1899 12.0574 15.9681 11.5711 15.5441 11.151L14.3848 9.99167C14.2487 9.85551 14.1203 9.72324 13.988 9.58709C13.7313 9.32255 13.4628 9.05023 13.1983 8.80515C12.7976 8.41224 12.3269 8.20605 11.8289 8.20605C11.3349 8.20605 10.8603 8.41224 10.444 8.80904L8.98906 10.264C8.45999 10.7931 8.16044 11.4349 8.0982 12.178C8.02429 13.1077 8.19546 14.0959 8.63894 15.2902C9.31973 17.138 10.3468 18.8536 11.8717 20.6859ZM9.04742 12.2597C9.0941 11.7423 9.2925 11.3105 9.66596 10.937L11.1131 9.48983C11.3388 9.27198 11.5877 9.15916 11.8289 9.15916C12.0662 9.15916 12.3074 9.27198 12.5292 9.49761C12.7898 9.73881 13.0349 9.99167 13.2994 10.2601C13.4317 10.3963 13.5679 10.5324 13.704 10.6725L14.8633 11.8318C15.1045 12.0729 15.229 12.318 15.229 12.5592C15.229 12.8004 15.1045 13.0455 14.8633 13.2867C14.7427 13.4073 14.6221 13.5318 14.5015 13.6524C14.1397 14.0181 13.8013 14.3643 13.4278 14.695C13.42 14.7027 13.4161 14.7066 13.4084 14.7144C13.0855 15.0373 13.136 15.3446 13.2139 15.578C13.2177 15.5897 13.2216 15.5975 13.2255 15.6092C13.5251 16.3289 13.9413 17.0135 14.591 17.8305C15.7581 19.2699 16.9874 20.3864 18.3412 21.2461C18.5085 21.355 18.6874 21.4406 18.8547 21.5262C19.0103 21.604 19.1542 21.6779 19.2826 21.7596C19.2982 21.7674 19.3098 21.7752 19.3254 21.783C19.4538 21.8491 19.5783 21.8802 19.7028 21.8802C20.014 21.8802 20.2163 21.6818 20.2824 21.6157L21.7374 20.1607C21.963 19.9351 22.2081 19.8145 22.4493 19.8145C22.7449 19.8145 22.9861 19.9973 23.1378 20.1607L25.4836 22.5027C25.9505 22.9695 25.9466 23.4752 25.472 23.9693C25.3086 24.1443 25.1374 24.3116 24.9546 24.4867C24.6823 24.7512 24.3983 25.0235 24.1415 25.3309C23.6941 25.8132 23.1612 26.0389 22.4726 26.0389C22.4065 26.0389 22.3364 26.035 22.2703 26.0311C20.9943 25.9494 19.8078 25.4515 18.9169 25.0274C16.4972 23.8565 14.3731 22.1953 12.6109 20.0868C11.1598 18.3401 10.1834 16.714 9.53759 14.9712C9.13689 13.9014 8.98517 13.0416 9.04742 12.2597Z" fill="white"/>
</g>
<defs>
<clipPath id="clip0_35_5724">
<rect width="18.7743" height="18.7743" fill="white" transform="translate(8.04611 8.20605)"/>
</clipPath>
</defs>
</svg>
