<svg width="114" height="134" viewBox="0 0 114 134" fill="none" xmlns="http://www.w3.org/2000/svg">
<g opacity="0.5">
<g opacity="0.5">
<path d="M29.8472 30.1858C34.6957 22.6427 43.372 20.6474 51.8 21.9962C58.7831 23.1963 70.2301 30.6043 66.4707 39.0523C64.2489 44.1756 57.5397 47.2795 53.6204 51.1237C49.4453 55.2814 47.0402 59.9894 48.0612 66.0977C48.4661 68.8012 52.718 68.3893 52.313 65.6858C49.9802 50.4659 79.3073 46.0369 69.7079 29.6444C60.9558 14.6133 36.4048 12.228 26.5661 27.3279C25.087 29.7808 28.3542 32.4957 29.8472 30.1858Z" fill="#595B83"/>
<path d="M53.1825 76.1391L53.1687 75.9961C53.352 76.4114 53.3797 76.6974 53.563 77.1127C53.888 77.5143 54.327 77.6161 54.7661 77.718C54.6243 77.7317 54.4826 77.7454 54.3409 77.7592C54.9802 76.9754 55.6196 76.1917 56.259 75.408C56.3144 75.9801 56.4284 75.6803 56.0757 74.9927C55.7368 74.4481 56.0757 74.9927 56.2313 75.122C55.6505 75.0339 55.1976 74.7891 54.6168 74.701C53.9082 74.7696 53.3935 76.8404 53.5661 75.6689C53.6525 75.0831 53.8943 74.6266 54.278 74.1564C54.9035 73.2297 56.4763 73.2217 57.2543 73.8681C58.1877 74.6438 58.1707 75.9446 57.5452 76.8713C57.6731 76.7146 57.7594 76.1288 57.8009 76.5578C57.8286 76.8439 57.7146 77.1436 57.5868 77.3003C57.103 78.2133 56.2803 78.5817 55.4438 78.8071C53.7431 78.9719 52.443 77.3656 52.1489 75.8062C52.038 74.6621 52.9331 73.5649 54.067 73.4551C54.7756 73.3864 55.4842 73.3178 56.0927 73.6919C56.9985 74.1815 57.493 74.8554 57.59 75.8565C57.8425 76.9869 56.6639 78.1115 55.6718 78.2076C54.2407 78.2019 53.4351 77.2695 53.1825 76.1391Z" fill="#595B83"/>
</g>
<g opacity="0.5">
<path d="M79.1152 87.0174C82.2831 84.5039 86.2769 84.9156 89.6778 86.7187C92.4835 88.2478 96.2906 93.0766 93.4558 96.1349C91.7615 97.9981 88.4458 98.346 86.2132 99.416C83.8257 100.583 82.1136 102.242 81.6599 104.998C81.439 106.211 83.3138 106.654 83.5346 105.441C84.7553 98.6052 97.9177 100.985 96.2075 92.5908C94.6608 84.9007 84.5292 80.3075 78.1309 85.3198C77.1424 86.1514 78.1416 87.7859 79.1152 87.0174Z" fill="#595B83"/>
<path d="M82.3835 110.029L82.3985 109.966C82.4162 110.17 82.3864 110.296 82.4041 110.5C82.4844 110.719 82.657 110.827 82.8295 110.934C82.767 110.919 82.7045 110.904 82.642 110.89C83.0291 110.648 83.4161 110.407 83.8031 110.165C83.7435 110.418 83.8358 110.306 83.7854 109.961C83.72 109.68 83.7853 109.961 83.8329 110.039C83.5979 109.917 83.4402 109.747 83.2052 109.624C82.8927 109.551 82.3715 110.359 82.6158 109.885C82.7379 109.647 82.9076 109.488 83.1398 109.343C83.5418 109.038 84.2143 109.264 84.4522 109.653C84.7376 110.12 84.5409 110.673 84.139 110.977C84.2164 110.929 84.3386 110.691 84.2938 110.881C84.264 111.007 84.1717 111.118 84.0943 111.166C83.7548 111.486 83.3501 111.523 82.9602 111.497C82.2103 111.32 81.8893 110.445 81.9908 109.737C82.1101 109.232 82.652 108.894 83.1519 109.013C83.4644 109.086 83.7768 109.16 83.982 109.409C84.2974 109.75 84.4103 110.109 84.3059 110.551C84.2491 111.07 83.5823 111.378 83.1448 111.275C82.5348 111.064 82.3267 110.549 82.3835 110.029Z" fill="#595B83"/>
</g>
<g opacity="0.5">
<path d="M44.1849 114.259C43.643 111.401 45.2404 108.995 47.5256 107.431C49.4375 106.155 53.7858 105.345 54.7861 108.173C55.4064 109.875 54.5195 112.103 54.4547 113.883C54.3996 115.793 54.8841 117.438 56.4877 118.649C57.1864 119.195 58.0955 118.149 57.3968 117.603C53.4509 114.54 59.367 106.952 53.4486 105.235C48.0336 103.65 41.7211 108.567 42.7746 114.318C42.9738 115.226 44.3489 115.136 44.1849 114.259Z" fill="#595B83"/>
<path d="M59.9409 119.874L59.9057 119.844C60.0415 119.901 60.1119 119.962 60.2477 120.019C60.4139 120.041 60.54 119.967 60.6661 119.893C60.6358 119.927 60.6055 119.962 60.5752 119.997C60.5508 119.67 60.5264 119.343 60.502 119.016C60.6427 119.138 60.6027 119.042 60.3662 118.959C60.1649 118.906 60.3662 118.959 60.4317 118.954C60.2753 119.063 60.114 119.107 59.9576 119.216C59.8061 119.39 60.1471 119.992 59.9263 119.678C59.8159 119.521 59.7709 119.359 59.7563 119.163C59.6967 118.805 60.0653 118.452 60.3927 118.431C60.7856 118.405 61.0719 118.715 61.1314 119.073C61.1265 119.008 61.0161 118.85 61.1217 118.942C61.192 119.003 61.2321 119.099 61.237 119.165C61.3268 119.488 61.2153 119.758 61.0687 119.998C60.7051 120.416 60.0405 120.328 59.6232 120.027C59.3418 119.782 59.3077 119.324 59.5501 119.045C59.7016 118.871 59.8531 118.696 60.0799 118.649C60.4024 118.562 60.6692 118.61 60.9155 118.824C61.2272 119.034 61.2007 119.562 60.9886 119.806C60.6504 120.124 60.2526 120.084 59.9409 119.874Z" fill="#595B83"/>
</g>
</g>
</svg>
