<svg width="48" height="46" viewBox="0 0 48 46" fill="none" xmlns="http://www.w3.org/2000/svg">
<path d="M21.8935 45.9995C21.7483 45.9995 21.6047 45.9673 21.4717 45.9049C21.3387 45.8425 21.2191 45.7512 21.1206 45.6369L0.279663 21.4667C0.140732 21.3056 0.0486297 21.1045 0.014628 20.8881C-0.0193737 20.6717 0.00620007 20.4494 0.0882197 20.2484C0.170239 20.0473 0.305147 19.8763 0.476431 19.7562C0.647715 19.636 0.847946 19.5721 1.05262 19.5721H11.0843C11.2349 19.5721 11.3838 19.6067 11.5208 19.6737C11.6579 19.7406 11.78 19.8383 11.8788 19.9602L18.8439 28.5514C19.5967 26.8262 21.0538 23.9538 23.6109 20.4536C27.3912 15.2791 34.4226 7.66894 46.4526 0.799064C46.6851 0.666312 46.9556 0.631857 47.2107 0.702504C47.4657 0.773151 47.6868 0.943764 47.8302 1.18065C47.9737 1.41754 48.0291 1.70349 47.9855 1.98203C47.9419 2.26057 47.8024 2.51145 47.5947 2.68514C47.5488 2.72363 42.9105 6.63979 37.5723 13.8129C32.6594 20.414 26.1286 31.2077 22.915 45.1423C22.8586 45.3871 22.7273 45.6045 22.5421 45.76C22.3569 45.9155 22.1284 46 21.8932 46L21.8935 45.9995Z" fill="#06AD35"/>
</svg>
