<svg width="35" height="32" viewBox="0 0 35 32" fill="none" xmlns="http://www.w3.org/2000/svg">
<path d="M15.2857 30.2462C15.189 30.2416 15.0944 30.2164 15.0077 30.1723C14.921 30.1282 14.8442 30.0661 14.7821 29.9899L1.64088 13.8834C1.55328 13.7761 1.49808 13.6447 1.48204 13.5053C1.46599 13.366 1.4898 13.2247 1.55055 13.0989C1.6113 12.973 1.70635 12.868 1.82407 12.7967C1.94179 12.7254 2.07708 12.6909 2.21337 12.6974L8.89355 13.0161C8.99384 13.0209 9.09191 13.0478 9.18114 13.0949C9.27037 13.1421 9.34869 13.2084 9.4108 13.2894L13.787 19.0003C14.3408 17.9219 15.3988 16.1327 17.2083 13.9774C19.8833 10.7912 24.7977 6.15188 33.018 2.14444C33.1769 2.067 33.3581 2.05358 33.5258 2.10683C33.6935 2.16008 33.8355 2.27612 33.9238 2.43205C34.0121 2.58797 34.0402 2.77245 34.0027 2.94904C33.9652 3.12564 33.8647 3.28151 33.7211 3.3859C33.6893 3.40903 30.4812 5.76399 26.7078 10.1778C23.2349 14.2397 18.5569 20.9291 15.9921 29.7309C15.947 29.8855 15.853 30.0203 15.7249 30.1137C15.5968 30.2072 15.4421 30.2539 15.2855 30.2465L15.2857 30.2462Z" fill="#64BE39"/>
</svg>
